<svg xmlns="http://www.w3.org/2000/svg" viewBox="0 0 1200 675">
<defs>
<linearGradient id="sky" x1="0" y1="0" x2="0" y2="1"><stop offset="0" stop-color="#f3fbf6"/><stop offset="1" stop-color="#e3f4ea"/></linearGradient>
<linearGradient id="gg" x1="0" y1="0" x2="1" y2="1"><stop offset="0" stop-color="#12b06a"/><stop offset="1" stop-color="#0d9c5e"/></linearGradient>
<linearGradient id="thermal" x1="0" y1="1" x2="0" y2="0"><stop offset="0" stop-color="#2036a8"/><stop offset=".45" stop-color="#8a2fb8"/><stop offset=".75" stop-color="#f2542d"/><stop offset="1" stop-color="#ffd23f"/></linearGradient>
<filter id="soft" x="-20%" y="-20%" width="140%" height="140%"><feDropShadow dx="0" dy="14" stdDeviation="18" flood-color="#0a3527" flood-opacity="0.18"/></filter>
</defs>
<rect width="1200" height="675" fill="url(#sky)"/>
<circle cx="1030" cy="120" r="210" fill="#e7f6ee" opacity=".7"/>
<circle cx="140" cy="560" r="160" fill="#e7f6ee" opacity=".5"/>
<rect x="0" y="615" width="1200" height="60" fill="#e7f6ee"/><line x1="0" y1="615" x2="1200" y2="615" stroke="#d6e5dc" stroke-width="3"/><g filter="url(#soft)"><rect x="160" y="180" width="330" height="435" rx="14" fill="#ffffff" stroke="#e6efe9"/><rect x="186" y="206" width="83" height="63" rx="4" fill="#e7f6ee" stroke="#d6e5dc"/><rect x="283" y="206" width="83" height="63" rx="4" fill="#e7f6ee" stroke="#d6e5dc"/><rect x="379" y="206" width="83" height="63" rx="4" fill="#e7f6ee" stroke="#d6e5dc"/><rect x="186" y="285" width="83" height="63" rx="4" fill="#e7f6ee" stroke="#d6e5dc"/><rect x="283" y="285" width="83" height="63" rx="4" fill="#e7f6ee" stroke="#d6e5dc"/><rect x="379" y="285" width="83" height="63" rx="4" fill="#e7f6ee" stroke="#d6e5dc"/><rect x="186" y="364" width="83" height="63" rx="4" fill="#e7f6ee" stroke="#d6e5dc"/><rect x="283" y="364" width="83" height="63" rx="4" fill="#e7f6ee" stroke="#d6e5dc"/><rect x="379" y="364" width="83" height="63" rx="4" fill="#e7f6ee" stroke="#d6e5dc"/><rect x="186" y="443" width="83" height="63" rx="4" fill="#e7f6ee" stroke="#d6e5dc"/><rect x="283" y="443" width="83" height="63" rx="4" fill="#e7f6ee" stroke="#d6e5dc"/><rect x="379" y="443" width="83" height="63" rx="4" fill="#e7f6ee" stroke="#d6e5dc"/><rect x="186" y="522" width="83" height="63" rx="4" fill="#e7f6ee" stroke="#d6e5dc"/><rect x="283" y="522" width="83" height="63" rx="4" fill="#e7f6ee" stroke="#d6e5dc"/><rect x="379" y="522" width="83" height="63" rx="4" fill="#e7f6ee" stroke="#d6e5dc"/></g>
<g filter="url(#soft)"><rect x="620" y="150" width="380" height="440" rx="20" fill="#fff" stroke="#e6efe9"/>
<rect x="620" y="150" width="380" height="80" rx="20" fill="url(#gg)"/>
<g transform="translate(660,270)"><circle cx="0" cy="0" r="20" fill="#e7f6ee"/><path d="M-8 0 l6 7 l12 -14" stroke="#12b06a" stroke-width="6" fill="none" stroke-linecap="round"/><rect x="40" y="-9" width="220" height="18" rx="9" fill="#e7f6ee"/></g><g transform="translate(660,350)"><circle cx="0" cy="0" r="20" fill="#e7f6ee"/><path d="M-8 0 l6 7 l12 -14" stroke="#12b06a" stroke-width="6" fill="none" stroke-linecap="round"/><rect x="40" y="-9" width="220" height="18" rx="9" fill="#e7f6ee"/></g><g transform="translate(660,430)"><circle cx="0" cy="0" r="20" fill="#e7f6ee"/><path d="M-8 0 l6 7 l12 -14" stroke="#12b06a" stroke-width="6" fill="none" stroke-linecap="round"/><rect x="40" y="-9" width="220" height="18" rx="9" fill="#e7f6ee"/></g><g transform="translate(660,510)"><circle cx="0" cy="0" r="20" fill="#e7f6ee"/><path d="M-8 0 l6 7 l12 -14" stroke="#12b06a" stroke-width="6" fill="none" stroke-linecap="round"/><rect x="40" y="-9" width="220" height="18" rx="9" fill="#e7f6ee"/></g>
</g><g transform="translate(400,120) scale(1.0) rotate(0)" filter="url(#soft)">
<rect x="-38" y="-8" width="76" height="20" rx="10" fill="#0a3527"/>
<rect x="-14" y="6" width="28" height="14" rx="5" fill="#0c1f17"/>
<circle cx="0" cy="16" r="5" fill="#12b06a"/>
<line x1="-38" y1="0" x2="-74" y2="-16" stroke="#0a3527" stroke-width="7" stroke-linecap="round"/>
<line x1="38" y1="0" x2="74" y2="-16" stroke="#0a3527" stroke-width="7" stroke-linecap="round"/>
<ellipse cx="-74" cy="-20" rx="30" ry="6" fill="#12b06a" opacity=".85"/>
<ellipse cx="74" cy="-20" rx="30" ry="6" fill="#12b06a" opacity=".85"/>
<ellipse cx="-74" cy="-20" rx="30" ry="6" fill="none" stroke="#0a3527" stroke-width="2"/>
<ellipse cx="74" cy="-20" rx="30" ry="6" fill="none" stroke="#0a3527" stroke-width="2"/>
</g>
</svg>