<svg xmlns="http://www.w3.org/2000/svg" viewBox="0 0 1200 675">
<defs>
<linearGradient id="sky" x1="0" y1="0" x2="0" y2="1"><stop offset="0" stop-color="#f3fbf6"/><stop offset="1" stop-color="#e3f4ea"/></linearGradient>
<linearGradient id="gg" x1="0" y1="0" x2="1" y2="1"><stop offset="0" stop-color="#12b06a"/><stop offset="1" stop-color="#0d9c5e"/></linearGradient>
<linearGradient id="thermal" x1="0" y1="1" x2="0" y2="0"><stop offset="0" stop-color="#2036a8"/><stop offset=".45" stop-color="#8a2fb8"/><stop offset=".75" stop-color="#f2542d"/><stop offset="1" stop-color="#ffd23f"/></linearGradient>
<filter id="soft" x="-20%" y="-20%" width="140%" height="140%"><feDropShadow dx="0" dy="14" stdDeviation="18" flood-color="#0a3527" flood-opacity="0.18"/></filter>
</defs>
<rect width="1200" height="675" fill="url(#sky)"/>
<circle cx="1030" cy="120" r="210" fill="#e7f6ee" opacity=".7"/>
<circle cx="140" cy="560" r="160" fill="#e7f6ee" opacity=".5"/>
<rect x="0" y="615" width="1200" height="60" fill="#e7f6ee"/><line x1="0" y1="615" x2="1200" y2="615" stroke="#d6e5dc" stroke-width="3"/><g filter="url(#soft)"><rect x="360" y="130" width="480" height="470" rx="20" fill="#fff" stroke="#e6efe9"/>
<rect x="400" y="180" width="200" height="22" rx="11" fill="#0a3527"/><rect x="400" y="220" width="320" height="14" rx="7" fill="#e7f6ee"/>
<rect x="400" y="290" width="90" height="140" fill="#e7f6ee"/><rect x="510" y="250" width="90" height="180" fill="#12b06a"/><rect x="620" y="330" width="90" height="100" fill="#0d9c5e"/>
<line x1="400" y1="430" x2="800" y2="430" stroke="#e6efe9" stroke-width="3"/>
<circle cx="420" cy="480" r="12" fill="#12b06a"/><rect x="450" y="470" width="260" height="16" rx="8" fill="#e7f6ee"/>
<circle cx="420" cy="530" r="12" fill="#ffd23f"/><rect x="450" y="520" width="220" height="16" rx="8" fill="#e7f6ee"/>
</g>
</svg>